<svg width="616" height="442" viewBox="0 0 462 331.5" xmlns="http://www.w3.org/2000/svg" xmlns:xlink="http://www.w3.org/1999/xlink">
<g id="graph0" class="graph" transform="translate(59.87779257838098,329.762123197903) scale(0.43446920052424637)">
<title>statshistory</title>
<polygon fill="white" stroke="transparent" points="-4,4 -4,-759 791.73,-759 791.73,4 -4,4"/>
<!-- struct1 -->
<g id="node4" class="node">
<title>1660</title>
<polygon fill="none" stroke="black" points="132.06,-464.5 132.06,-547.7 587.82,-547.7 587.82,-464.5 132.06,-464.5"/>
<text text-anchor="middle" x="359.94" y="-531.1" font-family="Times,serif" font-size="14.00">Hermann Conring </text>
<text text-anchor="middle" x="359.94" y="-514.3" font-family="Times,serif" font-size="14.00"> (1606–1681)</text>
<polyline fill="none" stroke="black" points="132.06,-506.1 587.82,-506.1 "/>
<text text-anchor="middle" x="154.06" y="-481.1" font-family="Times,serif" font-size="14.00">1660</text>
<polyline fill="none" stroke="black" points="176.06,-464.5 176.06,-506.1 "/>
<text text-anchor="middle" x="381.94" y="-489.5" font-family="Times,serif" font-size="14.00">'statisticum'; political science lectures on European states, </text>
<text text-anchor="middle" x="381.94" y="-472.7" font-family="Times,serif" font-size="14.00"> quantifying and comparing their finances, population, agriculture, etc.</text>
</g><g id="node1" class="node">
<title>botero</title>
<polygon fill="none" stroke="black" points="82.54,-688.1 82.54,-754.5 327.33,-754.5 327.33,-688.1 82.54,-688.1"/>
<text text-anchor="middle" x="204.94" y="-737.9" font-family="Times,serif" font-size="14.00">Giovanni Botero </text>
<text text-anchor="middle" x="204.94" y="-721.1" font-family="Times,serif" font-size="14.00"> (c. 1544–1617)</text>
<polyline fill="none" stroke="black" points="82.54,-712.9 327.33,-712.9 "/>
<text text-anchor="middle" x="204.94" y="-696.3" font-family="Times,serif" font-size="14.00">'Della ragion di Stato' ~ 'Reason of State'</text>
</g>
<!-- struct2 -->

<!-- struct1&#45;&gt;struct2 -->

<g id="node5" class="node">
<title>1672</title>
<polygon fill="none" stroke="black" points="118.34,-361.1 118.34,-410.7 331.54,-410.7 331.54,-361.1 118.34,-361.1"/>
<text text-anchor="middle" x="224.94" y="-394.1" font-family="Times,serif" font-size="14.00">Helenus Politanus (pse.)</text>
<polyline fill="none" stroke="black" points="118.34,-385.9 331.54,-385.9 "/>
<text text-anchor="middle" x="140.34" y="-369.3" font-family="Times,serif" font-size="14.00">1672</text>
<polyline fill="none" stroke="black" points="162.34,-361.1 162.34,-385.9 "/>
<text text-anchor="middle" x="246.94" y="-369.3" font-family="Times,serif" font-size="14.00">'Microscopium Statisticum'</text>
</g><!-- struct3 --><g id="node2" class="node">
<title>ghilini</title>
<polygon fill="none" stroke="black" points="345.44,-688.1 345.44,-754.5 686.43,-754.5 686.43,-688.1 345.44,-688.1"/>
<text text-anchor="middle" x="515.94" y="-737.9" font-family="Times,serif" font-size="14.00">Girolamo Ghilini </text>
<text text-anchor="middle" x="515.94" y="-721.1" font-family="Times,serif" font-size="14.00"> (1589–1668)</text>
<polyline fill="none" stroke="black" points="345.44,-712.9 686.43,-712.9 "/>
<text text-anchor="middle" x="515.94" y="-696.3" font-family="Times,serif" font-size="14.00">'Ristretto della civile, politica, statistica e militare scienza'</text>
</g>
<!-- struct3 -->
<!-- 1748 -->
<g id="node9" class="node">
<title>1748</title>
<polygon fill="none" stroke="black" points="0,-8.9 0,-75.3 327.87,-75.3 327.87,-8.9 0,-8.9"/>
<text text-anchor="middle" x="163.94" y="-58.7" font-family="Times,serif" font-size="14.00">Gottfried Achenwall </text>
<text text-anchor="middle" x="163.94" y="-41.9" font-family="Times,serif" font-size="14.00"> (1719–1772)</text>
<polyline fill="none" stroke="black" points="0,-33.7 327.87,-33.7 "/>
<text text-anchor="middle" x="22" y="-17.1" font-family="Times,serif" font-size="14.00">1748</text>
<polyline fill="none" stroke="black" points="44,-8.9 44,-33.7 "/>
<text text-anchor="middle" x="185.94" y="-17.1" font-family="Times,serif" font-size="14.00">'Vorbereitung zur Staatswissenschaft'; 'Statistik'</text>
</g>
<!-- struct3 -->
<g id="edge5" class="edge">
<title>1660-&gt;1672</title>
<path fill="none" stroke="black" d="M313.48,-464.42C295.91,-449.04 276.23,-431.81 259.9,-417.51"/>
<polygon fill="black" stroke="black" points="262,-414.7 252.17,-410.74 257.39,-419.96 262,-414.7"/>
</g>
<!-- 1725 --><g id="node3" class="node">
<title>sittewald</title>
<polygon fill="none" stroke="black" points="192.84,-584.7 192.84,-651.1 527.03,-651.1 527.03,-584.7 192.84,-584.7"/>
<text text-anchor="middle" x="359.94" y="-634.5" font-family="Times,serif" font-size="14.00">Philander Von Sittewald </text>
<text text-anchor="middle" x="359.94" y="-617.7" font-family="Times,serif" font-size="14.00"> (1601–1669)</text>
<polyline fill="none" stroke="black" points="192.84,-609.5 527.03,-609.5 "/>
<text text-anchor="middle" x="359.94" y="-592.9" font-family="Times,serif" font-size="14.00">'statista' ~ 'someone versed in the knowledge of the state'</text>
</g>
<g id="node6" class="node">
<title>1725</title>
<polygon fill="none" stroke="black" points="231.77,-120.7 231.77,-187.1 522.1,-187.1 522.1,-120.7 231.77,-120.7"/>
<text text-anchor="middle" x="376.94" y="-170.5" font-family="Times,serif" font-size="14.00">Martin Schmeitzel </text>
<text text-anchor="middle" x="376.94" y="-153.7" font-family="Times,serif" font-size="14.00"> (1679–1747)</text>
<polyline fill="none" stroke="black" points="231.77,-145.5 522.1,-145.5 "/>
<text text-anchor="middle" x="253.77" y="-128.9" font-family="Times,serif" font-size="14.00">1725</text>
<polyline fill="none" stroke="black" points="275.77,-120.7 275.77,-145.5 "/>
<text text-anchor="middle" x="398.94" y="-128.9" font-family="Times,serif" font-size="14.00">'collegium statisticum' ~ 'council of state'</text>
</g>
<g id="edge6" class="edge">
<title>1660-&gt;1725</title>
<path fill="none" stroke="black" d="M361.92,-464.24C365.16,-397.45 371.57,-265.52 374.87,-197.57"/>
<polygon fill="black" stroke="black" points="378.38,-197.39 375.37,-187.24 371.39,-197.05 378.38,-197.39"/>
</g>
<!-- 1725&#45;&gt;1748 -->
<!-- 1725&#45;&gt;1748 -->
<!-- 1725&#45;&gt;1748 --><!-- 1725&#45;&gt;1748 -->
<!-- 1725&#45;&gt;1748 -->
<!-- 1725&#45;&gt;1748 -->
<!-- 1725&#45;&gt;1748 -->
<g id="edge7" class="edge">
<title>1725-&gt;1748</title>
<path fill="none" stroke="black" d="M314.47,-120.7C289.65,-107.91 260.96,-93.12 235.33,-79.9"/>
<polygon fill="black" stroke="black" points="236.9,-76.77 226.4,-75.3 233.69,-82.99 236.9,-76.77"/>
</g>



<g id="node8" class="node">
<title>petty</title>
<polygon fill="none" stroke="black" points="387.74,-224.1 387.74,-307.3 746.13,-307.3 746.13,-224.1 387.74,-224.1"/>
<text text-anchor="middle" x="566.94" y="-290.7" font-family="Times,serif" font-size="14.00">William Petty </text>
<text text-anchor="middle" x="566.94" y="-273.9" font-family="Times,serif" font-size="14.00"> (1623-1687)</text>
<polyline fill="none" stroke="black" points="387.74,-265.7 746.13,-265.7 "/>
<text text-anchor="middle" x="409.74" y="-240.7" font-family="Times,serif" font-size="14.00">1672</text>
<polyline fill="none" stroke="black" points="431.74,-224.1 431.74,-265.7 "/>
<text text-anchor="middle" x="588.94" y="-249.1" font-family="Times,serif" font-size="14.00">'political arithmetic'; 'Essays in Political Arithmetick </text>
<text text-anchor="middle" x="588.94" y="-232.3" font-family="Times,serif" font-size="14.00"> and Political Survey or Anatomy of Ireland'</text>
</g>
<!-- suss -->
<!-- 1725&#45;&gt;suss --><g id="node10" class="node">
<title>suss</title>
<polygon fill="none" stroke="black" points="346.14,-0.5 346.14,-83.7 787.73,-83.7 787.73,-0.5 346.14,-0.5"/>
<text text-anchor="middle" x="566.94" y="-67.1" font-family="Times,serif" font-size="14.00">Johann Peter Süssmilch </text>
<text text-anchor="middle" x="566.94" y="-50.3" font-family="Times,serif" font-size="14.00"> (1707-1767)</text>
<polyline fill="none" stroke="black" points="346.14,-42.1 787.73,-42.1 "/>
<text text-anchor="middle" x="384.47" y="-17.1" font-family="Times,serif" font-size="14.00">1761-1762</text>
<polyline fill="none" stroke="black" points="422.8,-0.5 422.8,-42.1 "/>
<text text-anchor="middle" x="605.27" y="-25.5" font-family="Times,serif" font-size="14.00">'The Divine order in the changes in the human sex from birth, </text>
<text text-anchor="middle" x="605.27" y="-8.7" font-family="Times,serif" font-size="14.00"> death and reproduction of the same'</text>
</g>

<!-- 1725&#45;&gt;suss -->
<!-- gr -->
<!-- petty&#45;&gt;g -->
<g id="node7" class="node">
<title>graunt</title>
<polygon fill="none" stroke="black" points="412.31,-344.3 412.31,-427.5 671.56,-427.5 671.56,-344.3 412.31,-344.3"/>
<text text-anchor="middle" x="541.94" y="-410.9" font-family="Times,serif" font-size="14.00">John Graunt </text>
<text text-anchor="middle" x="541.94" y="-394.1" font-family="Times,serif" font-size="14.00"> (1620–1674)</text>
<polyline fill="none" stroke="black" points="412.31,-385.9 671.56,-385.9 "/>
<text text-anchor="middle" x="434.31" y="-360.9" font-family="Times,serif" font-size="14.00">1663</text>
<polyline fill="none" stroke="black" points="456.31,-344.3 456.31,-385.9 "/>
<text text-anchor="middle" x="563.94" y="-369.3" font-family="Times,serif" font-size="14.00">'Natural and Political Observations </text>
<text text-anchor="middle" x="563.94" y="-352.5" font-family="Times,serif" font-size="14.00"> Made upon the Bills of Mortality'</text>
</g>
<!-- graunt&#45;&gt;suss -->
<!-- graunt&#45;&gt;suss -->
</g>
</svg>