<?xml version="1.0" encoding="utf-8"?>
<svg id="svg2" version="1.0" width="575.42999" height="675.68799" xmlns="http://www.w3.org/2000/svg" xmlns:bx="https://boxy-svg.com">
  <title id="title1432">University of Newcastle Arms</title>
  <defs id="defs6">
    <polygon id="star" transform="scale(53)" points="0,-1 0.58778525,0.80901699 -0.95105652,-0.30901699 0.95105652,-0.30901699 -0.58778525,0.80901699 "/>
    <g id="s">
      <g id="c">
        <path transform="rotate(17.999992,3.1568772,-0.49999528)" d="M 0,0 V 1 H 0.5 Z" id="t"/>
        <path transform="matrix(-0.9510565574432469, 0.30901686773410925, 0.30901686773410925, 0.9510565574432469, -0.0000014537891734889286, -0.9999998209383225)" d="M 0,0 V 1 H 0.5 Z" id="use2144"/>
      </g>
      <g id="a">
        <g id="use2147" transform="matrix(0.30901686773410925, 0.9510565574432469, -0.9510565574432469, 0.30901686773410925, 0, 0)">
          <path transform="rotate(17.999992,3.1568772,-0.49999528)" d="M 0,0 V 1 H 0.5 Z"/>
          <path transform="matrix(-0.9510565574432469, 0.30901686773410925, 0.30901686773410925, 0.9510565574432469, -0.0000014537891734889286, -0.9999998209383225)" d="M 0,0 V 1 H 0.5 Z"/>
        </g>
        <g id="use2149" transform="matrix(-0.8090171509116001, 0.5877850368381942, -0.5877850368381942, -0.8090171509116001, 0, 0)">
          <path transform="rotate(17.999992,3.1568772,-0.49999528)" d="M 0,0 V 1 H 0.5 Z"/>
          <path transform="matrix(-0.9510565574432469, 0.30901686773410925, 0.30901686773410925, 0.9510565574432469, -0.0000014537891734889286, -0.9999998209383225)" d="M 0,0 V 1 H 0.5 Z"/>
        </g>
      </g>
      <g id="use2151" transform="matrix(-1, 0, 0, 1, 0, 0)">
        <g transform="matrix(0.30901686773410925, 0.9510565574432469, -0.9510565574432469, 0.30901686773410925, 0, 0)">
          <path transform="rotate(17.999992,3.1568772,-0.49999528)" d="M 0,0 V 1 H 0.5 Z"/>
          <path transform="matrix(-0.9510565574432469, 0.30901686773410925, 0.30901686773410925, 0.9510565574432469, -0.0000014537891734889286, -0.9999998209383225)" d="M 0,0 V 1 H 0.5 Z"/>
        </g>
        <g transform="matrix(-0.8090171509116001, 0.5877850368381942, -0.5877850368381942, -0.8090171509116001, 0, 0)">
          <path transform="rotate(17.999992,3.1568772,-0.49999528)" d="M 0,0 V 1 H 0.5 Z"/>
          <path transform="matrix(-0.9510565574432469, 0.30901686773410925, 0.30901686773410925, 0.9510565574432469, -0.0000014537891734889286, -0.9999998209383225)" d="M 0,0 V 1 H 0.5 Z"/>
        </g>
      </g>
    </g>
    <polygon id="star-5" transform="scale(53)" points="0.58778525,0.80901699 -0.95105652,-0.30901699 0.95105652,-0.30901699 -0.58778525,0.80901699 0,-1 "/>
    <clipPath id="SVGID_40_">
      <path id="use186" d="M 0,0 H 212.6 V 70 H 0 Z" transform="matrix(1, 0, 0, 1, 0, 0)" overflow="visible"/>
    </clipPath>
    <path id="SVGID_39_" d="M 0,0 H 212.6 V 70 H 0 Z"/>
    <style bx:fonts="Alfa Slab One">@import url(https://fonts.googleapis.com/css2?family=Alfa+Slab+One%3Aital%2Cwght%400%2C400&amp;display=swap);</style>
    <path id="path-0" d="M 58.994 278.789 C 202.346 313.628 319.971 346.529 434.653 394.313 C 471.97 414.634 467.727 427.406 463.742 443.348 C 459.102 445.01 453.771 449.046 450.444 449.997 C 424.475 457.417 393.704 463.295 366.502 463.295 C 329.372 463.295 296.526 441.338 265.939 430.05 C 243.023 421.593 217.962 418.491 195.295 410.935 C 166.292 403.061 148.377 387.197 131.3 373.535 L 126.313 371.873 C 123.856 370.235 121.301 368.367 118.833 366.887" style="fill: none;"/>
    <linearGradient gradientUnits="userSpaceOnUse" x1="124.676" y1="16.986" x2="124.676" y2="49.252" id="gradient-0" gradientTransform="matrix(-0.999878, 0.02275, -0.004913, -0.467695, 249.975175, 43.322845)">
      <stop offset="0" style="stop-color: rgba(0, 57, 101, 1)"/>
      <stop offset="1" style="stop-color: rgb(213, 17, 45);"/>
    </linearGradient>
  </defs>
  <g id="layer1" style="display:inline" transform="matrix(1, 0, 0, 1, -12.417353, -10.706456)">
    <g transform="translate(1143.4174,-214.07239)" id="layer1-6"/>
    <g id="g191" transform="matrix(9.6548658,0,0,9.6526857,12.417353,10.706456)" style="fill:#003b71;fill-opacity:1">
      <defs id="defs184">
        <path id="path1445" d="M 0,0 H 212.6 V 70 H 0 Z"/>
      </defs>
      <path class="st19" d="M 0,0 V 22.7 C 0,56.1 29.8,70 29.8,70 29.8,70 59.6,56.1 59.6,22.7 V 0" clip-path="url(#SVGID_40_)" id="path189" style="fill:#003a65;fill-opacity:1"/>
    </g>
  </g>
  <g id="layer3" transform="matrix(1, 0, 0, 1, -0.014688, 0)">
    <text style="font: 42.6667px / 1.25 &quot;Fira Sans&quot;; letter-spacing: 5.24px; word-spacing: 0px; fill: rgb(0, 0, 0); fill-opacity: 1; stroke: none; white-space: pre;" x="227.68839" y="381.18161" id="text5469"><tspan id="tspan5467" x="227.68839" y="381.18161" style="font-style:normal;font-variant:normal;font-weight:normal;font-stretch:normal;font-family:'Old English Five';-inkscape-font-specification:'Old English Five'"/></text>
    <text style="font: 42.6667px / 1.25 &quot;Fira Sans&quot;; letter-spacing: 5.24px; word-spacing: 0px; fill: rgb(0, 0, 0); fill-opacity: 1; stroke: none; white-space: pre;" x="306" y="524.29388" id="text1092"><tspan id="tspan1090" x="306" y="524.29388"/></text>
    <g id="g3412" transform="matrix(0.29558092,0,0,0.33676758,123.52308,43.493683)"/>
    <g id="g1452" transform="matrix(0.0561719,0,0,0.04698221,7.982644,560.50494)" style="stroke:#000000">
      <g id="g1471" transform="matrix(1.2576137,0,0,1.0143673,-1632.9513,-53.124131)"/>
    </g>
    <circle style="color:#000000;display:inline;overflow:visible;visibility:visible;fill:#003a65;fill-opacity:1;fill-rule:nonzero;stroke:none;stroke-width:16.1377;stroke-linecap:butt;stroke-linejoin:miter;stroke-miterlimit:4;stroke-dasharray:none;stroke-dashoffset:0;stroke-opacity:1;marker:none;enable-background:accumulate" id="path16725-3" cx="287.5697" cy="432.50101" r="33.845001"/>
    <rect style="opacity:1;fill:#ffffff;fill-opacity:1;fill-rule:nonzero;stroke:none;stroke-width:1.00397;stroke-miterlimit:4;stroke-dasharray:none;stroke-opacity:1" id="rect1706" width="557.92499" height="209.463" x="9.4116879" y="9.6569996" rx="0"/>
  </g>
  <text style="fill: url(#gradient-0); font-family: &quot;Alfa Slab One&quot;; font-size: 23.5736px; line-height: 37.7177px; paint-order: stroke; stroke-linejoin: round; stroke-miterlimit: 25; stroke-width: 0.340722px; white-space: pre;" transform="matrix(10.484419, -0.001591, 0, 7.12527, -1018.502625, -114.37796)" x="98.887" y="41.371">HSS</text>
  <text style="fill: rgb(255, 255, 255); font-family: &quot;Alfa Slab One&quot;; font-size: 150px; white-space: pre;" transform="matrix(1.150389, 0, 0, 1.39613, -14.97715, -1.293859)" x="49.852" y="299.567">8005</text>
  <path style="color: rgb(0, 0, 0); display: inline; overflow: visible; visibility: visible; fill: rgb(255, 255, 255); fill-opacity: 1; fill-rule: nonzero; stroke: rgb(0, 0, 0); stroke-width: 0; stroke-linecap: butt; stroke-linejoin: miter; stroke-miterlimit: 4; stroke-dasharray: none; stroke-dashoffset: 0; stroke-opacity: 1; marker: none;" d="M 289.37 464.222 C 271.119 464.222 270.621 466.86 270.621 468.218 C 270.621 469.607 280.696 481.937 280.696 499.473 C 280.696 507.685 279.531 512.954 278.019 516.531 C 277.065 516.226 276.046 516.058 274.991 516.058 C 269.515 516.058 265.059 520.493 265.059 525.968 C 265.059 527.001 265.218 527.997 265.513 528.933 C 261.919 530.476 256.605 531.696 248.227 531.696 C 230.691 531.696 218.361 521.621 216.974 521.621 C 215.612 521.621 212.977 522.119 212.977 540.368 C 212.977 558.619 215.612 559.118 216.974 559.118 C 218.361 559.118 230.691 549.043 248.227 549.043 C 256.605 549.043 261.919 550.26 265.513 551.805 C 265.218 552.741 265.059 553.738 265.059 554.77 C 265.059 560.246 269.515 564.68 274.991 564.68 C 276.046 564.68 277.065 564.512 278.019 564.207 C 279.531 567.785 280.696 573.055 280.696 581.266 C 280.696 598.801 270.621 611.13 270.621 612.52 C 270.621 613.879 271.119 616.517 289.37 616.517 C 307.621 616.517 308.118 613.879 308.118 612.52 C 308.118 611.13 298.043 598.801 298.043 581.266 C 298.043 573.036 299.226 567.765 300.742 564.188 C 301.702 564.492 302.712 564.68 303.771 564.68 C 309.247 564.68 313.681 560.246 313.681 554.77 C 313.681 553.738 313.52 552.741 313.228 551.805 C 316.821 550.26 322.134 549.043 330.514 549.043 C 348.049 549.043 360.379 559.118 361.769 559.118 C 363.127 559.118 365.766 558.619 365.766 540.368 C 365.766 522.119 363.127 521.621 361.769 521.621 C 360.379 521.621 348.049 531.696 330.514 531.696 C 322.134 531.696 316.821 530.476 313.228 528.933 C 313.52 527.997 313.681 527.001 313.681 525.968 C 313.681 520.493 309.247 516.058 303.771 516.058 C 302.712 516.058 301.702 516.245 300.742 516.553 C 299.226 512.974 298.043 507.703 298.043 499.473 C 298.043 481.937 308.118 469.607 308.118 468.218 C 308.118 466.86 307.621 464.222 289.37 464.222 Z" id="path16721" transform="matrix(0.999834, 0.018209, -0.018209, 0.999834, 9.887569, -5.179575)"/>
  <circle style="color: rgb(0, 0, 0); display: inline; overflow: visible; visibility: visible; fill: rgb(0, 58, 101); fill-opacity: 1; fill-rule: nonzero; stroke: none; stroke-width: 16.1377; stroke-linecap: butt; stroke-linejoin: miter; stroke-miterlimit: 4; stroke-dasharray: none; stroke-dashoffset: 0; stroke-opacity: 1; marker: none;" id="circle-1" cx="287.57" cy="432.501" r="15.051" transform="matrix(0.999834, 0.018209, -0.018209, 0.999834, 9.062608, 102.465114)"/>
</svg>